<?xml version="1.0" encoding="utf-8"?>
<!-- Generator: Adobe Illustrator 25.0.1, SVG Export Plug-In . SVG Version: 6.00 Build 0)  -->
<svg version="1.1" id="Слой_1" xmlns="http://www.w3.org/2000/svg" xmlns:xlink="http://www.w3.org/1999/xlink" x="0px" y="0px"
	 viewBox="0 0 3300 2200" style="enable-background:new 0 0 3300 2200;" xml:space="preserve">
<style type="text/css">
	.st0{fill:none;stroke:#000000;stroke-width:0.5;}
	.st1{font-family:'Arial-BoldMT';}
	.st2{font-size:12px;}
	.st3{font-family:'ArialMT';}
	.st4{fill:none;stroke:#00AEEF;stroke-width:0.5;}
	.st5{fill:#27AAE1;}
	.st6{fill:none;stroke:#27AAE1;stroke-width:0.5;}
	.st7{fill:none;stroke:#000000;stroke-width:6;stroke-miterlimit:10;}
	.st8{fill:none;stroke:#000000;stroke-width:4;stroke-miterlimit:10;}
</style>
<g id="Notes">
	<line class="st0" x1="261.8" y1="292.3" x2="3034.8" y2="292.3"/>
	<text transform="matrix(1 0 0 1 261.8062 322.327)" class="st1 st2">Weight/Scale Variations</text>
	<text transform="matrix(1 0 0 1 534.8423 322.327)" class="st3 st2">Ultralight</text>
	<text transform="matrix(1 0 0 1 843.5563 322.327)" class="st3 st2">Thin</text>
	<text transform="matrix(1 0 0 1 1138.9254 322.327)" class="st3 st2">Light</text>
	<text transform="matrix(1 0 0 1 1427.6344 322.327)" class="st3 st2">Regular</text>
	<text transform="matrix(1 0 0 1 1724.0264 322.327)" class="st3 st2">Medium</text>
	<text transform="matrix(1 0 0 1 2017.0625 322.327)" class="st3 st2">Semibold</text>
	<text transform="matrix(1 0 0 1 2326.7773 322.327)" class="st3 st2">Bold</text>
	<text transform="matrix(1 0 0 1 2618.4893 322.327)" class="st3 st2">Heavy</text>
	<text transform="matrix(1 0 0 1 2917.5342 322.327)" class="st3 st2">Black</text>
	<line class="st0" x1="261.8" y1="1903.3" x2="3034.8" y2="1903.3"/>
	<g transform="matrix(1 0 0 1 263 1933)">
		<path d="M8.1,1.2c4.3,0,7.9-3.6,7.9-7.9s-3.6-7.9-7.9-7.9S0.2-11,0.2-6.7C0.2-2.4,3.8,1.2,8.1,1.2z M8.1-0.3
			c-3.5,0-6.4-2.8-6.4-6.4s2.8-6.4,6.4-6.4s6.4,2.8,6.4,6.4C14.5-3.2,11.6-0.3,8.1-0.3z M5.2-6h2.1v2.1c0,0.4,0.3,0.7,0.7,0.7
			c0.4,0,0.7-0.3,0.7-0.7V-6h2.1c0.4,0,0.7-0.3,0.7-0.7c0-0.4-0.3-0.7-0.7-0.7h-2v-2.1c0-0.4-0.3-0.8-0.7-0.8
			c-0.4,0-0.7,0.3-0.7,0.8v2.1H5.2c-0.4,0-0.8,0.3-0.8,0.7C4.5-6.3,4.8-6,5.2-6z"/>
	</g>
	<g transform="matrix(1 0 0 1 281.506 1933)">
		<path d="M10.5,3.2c5.4,0,10-4.5,10-10c0-5.4-4.5-10-10-10c-5.4,0-10,4.5-10,10C0.6-1.3,5.1,3.2,10.5,3.2z M10.5,1.6
			c-4.6,0-8.3-3.7-8.3-8.3S5.9-15,10.5-15s8.3,3.7,8.3,8.3S15.1,1.6,10.5,1.6z M6.8-5.9h2.9V-3c0,0.5,0.3,0.8,0.8,0.8
			s0.8-0.3,0.8-0.8v-2.9h2.9c0.5,0,0.8-0.3,0.8-0.8s-0.3-0.8-0.8-0.8h-2.9v-2.9c0-0.5-0.3-0.8-0.8-0.8s-0.8,0.3-0.8,0.8v2.9H6.8
			C6.3-7.5,6-7.2,6-6.7S6.3-5.9,6.8-5.9z"/>
	</g>
	<g transform="matrix(1 0 0 1 304.924 1933)">
		<path d="M13.8,6c7,0,12.7-5.8,12.7-12.7c0-7-5.8-12.7-12.7-12.7c-7,0-12.7,5.8-12.7,12.7C1.1,0.2,6.8,6,13.8,6z M13.8,4.2
			c-6,0-10.9-4.9-10.9-10.9s4.8-10.9,10.9-10.9c6,0,10.9,4.9,10.9,10.9S19.8,4.2,13.8,4.2z M8.9-5.8h4v4c0,0.5,0.4,0.9,0.9,0.9
			s0.9-0.4,0.9-0.9v-4h4c0.5,0,0.9-0.4,0.9-0.9s-0.4-0.9-0.9-0.9h-4v-4c0-0.6-0.4-0.9-0.9-0.9s-0.9,0.4-0.9,0.9v4h-4
			C8.3-7.6,8-7.2,8-6.7C7.9-6.2,8.3-5.8,8.9-5.8z"/>
	</g>
	<text transform="matrix(1 0 0 1 261.8062 1953.3271)" class="st1 st2">Design Variations</text>
	<text transform="matrix(1 0 0 1 261.8062 1971.3271)" class="st3 st2">Symbols are supported in up to nine weights and three scales.</text>
	<text transform="matrix(1 0 0 1 261.8062 1989.3271)" class="st3 st2">For optimal layout with text and other symbols, vertically align</text>
	<text transform="matrix(1 0 0 1 261.8062 2007.3271)" class="st3 st2">symbols with the adjacent text.</text>
	<line class="st4" x1="774.8" y1="1919.3" x2="774.8" y2="1933.3"/>
	<g transform="matrix(1 0 0 1 776 1933)">
		<path d="M2.1,0.5c0.5,0,0.8-0.2,1-0.7l1.3-3.5h5.8l1.3,3.5c0.2,0.5,0.4,0.7,0.9,0.7s0.8-0.3,0.8-0.8c0-0.2,0-0.3-0.1-0.5L8.5-13.1
			C8.2-13.7,7.8-14,7.2-14s-1,0.3-1.2,0.9L1.4-0.9C1.3-0.6,1.3-0.5,1.3-0.3C1.3,0.2,1.6,0.5,2.1,0.5z M4.8-5.2l2.4-6.6l0,0l2.4,6.6
			C9.6-5.2,4.8-5.2,4.8-5.2z"/>
	</g>
	<line class="st4" x1="791.6" y1="1919.3" x2="791.6" y2="1933.3"/>
	<text transform="matrix(1 0 0 1 774.8062 1953.3271)" class="st1 st2">Margins</text>
	<text transform="matrix(1 0 0 1 774.8062 1971.3271)" class="st3 st2">Leading and trailing margins on the left and right side of each symbol</text>
	<text transform="matrix(1 0 0 1 774.8062 1989.3271)" class="st3 st2">can be adjusted by modifying the x-location of the margin guidelines.</text>
	<text transform="matrix(1 0 0 1 774.8062 2007.3271)" class="st3 st2">Modifications are automatically applied proportionally to all</text>
	<text transform="matrix(1 0 0 1 774.8062 2025.3271)" class="st3 st2">scales and weights.</text>
	<g transform="matrix(1 0 0 1 1289 1933)">
		<path d="M1.6,2.2l1.7,1.7c0.9,0.9,1.8,0.8,2.8-0.2L16.3-7.5c0.3,0.1,0.5,0.1,0.8,0l1.1-0.2L18.9-7v0.6c0,0.5,0.1,0.9,0.6,1.4
			l0.8,0.7c0.5,0.5,1.1,0.5,1.6,0l2.9-2.9c0.5-0.5,0.4-1.1,0-1.5L24-9.5c-0.5-0.5-0.8-0.6-1.3-0.6h-0.6l-0.6-0.6l0.2-1.1
			c0.1-0.6,0-1-0.6-1.6l-2.2-2.2C15.4-19,11-18.9,8.1-16c-0.4,0.4-0.4,1-0.2,1.4c0.2,0.4,0.7,0.6,1.3,0.4c1.5-0.3,3-0.4,4.4,0.5
			L13-12.2c-0.2,0.5-0.2,0.9-0.1,1.2L1.9-0.6C0.9,0.3,0.8,1.3,1.6,2.2z M9.6-15.6c2.4-1.8,5.7-1.5,7.9,0.8l2.4,2.4
			c0.2,0.2,0.3,0.4,0.2,0.8l-0.3,1.5l1.5,1.5l1-0.1c0.3,0,0.3,0,0.5,0.2L23.4-8L21-5.6l-0.6-0.6c-0.2-0.2-0.2-0.3-0.2-0.5l0.1-1
			l-1.5-1.5l-1.5,0.3c-0.3,0.1-0.5,0-0.7-0.2l-2-2c-0.3-0.2-0.3-0.4-0.1-0.8l0.9-2.1c-1.6-1.5-3.6-2.1-5.6-1.5
			C9.5-15.4,9.4-15.5,9.6-15.6z M4.1,2.6L2.9,1.5C2.4,1,2.5,0.7,2.9,0.3L13.8-9.9l1.5,1.5l-10,11C4.9,3,4.5,3.1,4.1,2.6z"/>
	</g>
	<text transform="matrix(1 0 0 1 1287.8062 1953.3271)" class="st1 st2">Exporting</text>
	<text transform="matrix(1 0 0 1 1287.8062 1971.3271)" class="st3 st2">Symbols should be outlined when exporting to ensure the</text>
	<text transform="matrix(1 0 0 1 1287.8062 1989.3271)" class="st3 st2">design is preserved when submitting to Xcode.</text>
	<text id="template-version" transform="matrix(1 0 0 1 2957.6558 1933.3271)" class="st3 st2">Template v.2.0</text>
	<text transform="matrix(1 0 0 1 2877.3823 1951.3271)" class="st3 st2">Requires Xcode 12 or greater</text>
	<text transform="matrix(1 0 0 1 2898.0718 1969.3271)" class="st3 st2">Generated from suit.heart</text>
	<text transform="matrix(1 0 0 1 2920.73 1987.3271)" class="st3 st2">Typeset at 100 points</text>
	<text transform="matrix(1 0 0 1 261.8062 726.3271)" class="st3 st2">Small</text>
	<text transform="matrix(1 0 0 1 261.8062 1156.3271)" class="st3 st2">Medium</text>
	<text transform="matrix(1 0 0 1 261.8062 1586.3271)" class="st3 st2">Large</text>
</g>
<g>
	<g id="Guides">
		<g id="H-reference" transform="matrix(1 0 0 1 339 696)">
			<path class="st5" d="M1.5,2.4h2.7l9.3-24.5h32.8l9.4,24.5h2.6L31.2-68.1h-2.5L1.5,2.4z M29.9-64.7L29.9-64.7l15.5,40.4h-31
				L29.9-64.7z"/>
		</g>
		<line id="Baseline-S" class="st6" x1="263.5" y1="698.4" x2="3036.5" y2="698.4"/>
		<line id="Capline-S" class="st6" x1="263.5" y1="627.9" x2="3036.5" y2="627.9"/>
		<g id="H-reference_1_" transform="matrix(1 0 0 1 339 1126)">
			<path class="st5" d="M1.5,2.4h2.7l9.3-24.5h32.8l9.4,24.5h2.6L31.2-68.1h-2.5L1.5,2.4z M29.9-64.7L29.9-64.7l15.5,40.4h-31
				L29.9-64.7z"/>
		</g>
		<line id="Baseline-M" class="st6" x1="263.5" y1="1128.4" x2="3036.5" y2="1128.4"/>
		<line id="Capline-M" class="st6" x1="263.5" y1="1057.9" x2="3036.5" y2="1057.9"/>
		<g id="H-reference_2_" transform="matrix(1 0 0 1 339 1556)">
			<path class="st5" d="M1.5,2.4h2.7l9.3-24.5h32.8l9.4,24.5h2.6L31.2-68.1h-2.5L1.5,2.4z M29.9-64.7L29.9-64.7l15.5,40.4h-31
				L29.9-64.7z"/>
		</g>
		<line id="Baseline-L" class="st6" x1="263.5" y1="1558.4" x2="3036.5" y2="1558.4"/>
		<line id="Capline-L" class="st6" x1="263.5" y1="1487.9" x2="3036.5" y2="1487.9"/>
		<line id="left-margin" class="st4" x1="1389.8" y1="1033.2" x2="1389.8" y2="1152.5"/>
		<line id="right-margin" class="st4" x1="1510.9" y1="1033.2" x2="1510.9" y2="1152.5"/>
	</g>
	<g id="Symbols">
		<g id="Medium-M" transform="matrix(1 0 0 1 1685.35 1126)">
			<path d="M12.3-46.6c0,20.8,17.5,41.5,44.8,59c1.5,1,3.4,2,4.6,2c1.3,0,3.1-1,4.6-2c27.3-17.6,44.8-38.2,44.8-59
				c0-18-12.5-30.5-28.4-30.5c-9.3,0-16.6,4.2-21,10.7c-4.3-6.4-11.6-10.7-20.9-10.7C24.8-77.1,12.3-64.6,12.3-46.6z M22.4-46.6
				c0-12.3,8.1-20.7,19-20.7c8.8,0,13.7,5.3,16.8,10c1.4,2,2.3,2.6,3.6,2.6s2.1-0.7,3.6-2.6c3.3-4.5,8.1-10,16.8-10
				c10.9,0,19,8.3,19,20.7c-0.1,17.2-17.9,36.2-38.6,49.9c-0.4,0.3-0.7,0.5-0.9,0.5s-0.5-0.2-0.9-0.5C40.2-10.4,22.4-29.4,22.4-46.6
				z"/>
		</g>
		<g id="Regular-M" transform="matrix(1 0 0 1 1389.3 1126)">
			<path d="M12.7-35.9c0,20.8,17.4,41.3,45,58.8c1,0.6,2.5,1.3,3.5,1.3s2.5-0.7,3.6-1.3c27.5-17.6,44.9-38,44.9-58.8
				c0-17.3-11.9-29.5-27.7-29.5c-9,0-16.4,4.3-20.8,10.9C56.9-61,49.4-65.4,40.4-65.4C24.6-65.4,12.7-53.2,12.7-35.9z M20.6-35.9
				c0-13,8.4-21.6,19.7-21.6c9.2,0,14.5,5.7,17.6,10.6c1.3,2,2.1,2.5,3.3,2.5s1.9-0.6,3.3-2.5c3.4-4.8,8.4-10.6,17.6-10.6
				c11.3,0,19.7,8.6,19.7,21.6c0,18.2-19.2,37.7-39.6,51.3c-0.5,0.3-0.8,0.6-1,0.6s-0.5-0.2-1-0.6C39.7,1.9,20.6-17.7,20.6-35.9z"/>
			<path class="st7" d="M109.7-73.5c-7.4-4.8-15.4,13.7-15.4,13.7"/>
			<path class="st7" d="M102.4-54.3c0,0,16.2-15.1,6.9-19.5"/>
			<path class="st7" d="M81.6-62.2c0,0,1.5-10.2,4.5-15.6c1.2-2.2,4.3-4.2,6.1-4.1c9.5,0.5,0.9,16.5,0.1,18.9"/>
		</g>
		<g id="Light-M" transform="matrix(1 0 0 1 1094 1126)">
			<path d="M12.1-38.9c0,17.7,15.7,35,39.3,50c0.8,0.5,1.9,0.9,2.6,0.9c0.8,0,1.9-0.5,2.7-0.9C80.4-4,96-21.3,96-38.9
				c0-14.5-10.2-24.8-23.7-24.8c-7.8,0-14.6,3.9-18.3,10c-3.7-6.1-10.5-10-18.3-10C22.2-63.7,12.1-53.3,12.1-38.9z M17.4-38.9
				c0-11.6,7.8-19.6,18.4-19.6c8,0,13,4.9,15.9,9.7c0.9,1.4,1.5,1.8,2.4,1.8s1.4-0.5,2.4-1.8c3.1-4.8,7.9-9.7,15.9-9.7
				c10.6,0,18.4,7.9,18.4,19.6C90.7-23,73.9-6.2,54.9,6.3c-0.4,0.2-0.6,0.3-0.8,0.3s-0.4-0.2-0.7-0.4C34.3-6.2,17.4-23,17.4-38.9z"
				/>
			<path class="st8" d="M68.6-62.1c0,0,0.4-14.4,7.1-14.5s2.4,13.7,2.4,13.7"/>
			<path class="st8" d="M90.5-53.1c0,0,11-13.2,4.7-17C88.9-74,82-59.1,82-59.1"/>
		</g>
	</g>
</g>
</svg>
