<?xml version="1.0" encoding="utf-8"?>
<!-- Generator: Adobe Illustrator 25.0.1, SVG Export Plug-In . SVG Version: 6.00 Build 0)  -->
<svg version="1.1" id="Слой_1" xmlns="http://www.w3.org/2000/svg" xmlns:xlink="http://www.w3.org/1999/xlink" x="0px" y="0px"
	 viewBox="0 0 3300 2200" style="enable-background:new 0 0 3300 2200;" xml:space="preserve">
<style type="text/css">
	.st0{fill:#FFFFFF;}
	.st1{fill:none;stroke:#000000;stroke-width:0.5;}
	.st2{font-family:'Arial-BoldMT';}
	.st3{font-size:12px;}
	.st4{font-family:'ArialMT';}
	.st5{fill:none;stroke:#00AEEF;stroke-width:0.5;}
	.st6{fill:#27AAE1;}
	.st7{fill:none;stroke:#27AAE1;stroke-width:0.5;}
	.st8{fill:none;stroke:#000000;stroke-width:5;stroke-miterlimit:10;}
	.st9{fill:none;stroke:#000000;stroke-width:3;stroke-miterlimit:10;}
	.st10{fill:none;stroke:#000000;stroke-width:2;stroke-miterlimit:10;}
</style>
<g id="Notes">
	<rect id="artboard" x="77" y="-28.3" class="st0" width="3300" height="2200"/>
	<line class="st1" x1="340" y1="263.7" x2="3113" y2="263.7"/>
	<text transform="matrix(1 0 0 1 339.995 293.6519)" class="st2 st3">Weight/Scale Variations</text>
	<text transform="matrix(1 0 0 1 613.0311 293.6519)" class="st4 st3">Ultralight</text>
	<text transform="matrix(1 0 0 1 921.7451 293.6519)" class="st4 st3">Thin</text>
	<text transform="matrix(1 0 0 1 1217.1143 293.6519)" class="st4 st3">Light</text>
	<text transform="matrix(1 0 0 1 1505.8232 293.6519)" class="st4 st3">Regular</text>
	<text transform="matrix(1 0 0 1 1802.2151 293.6519)" class="st4 st3">Medium</text>
	<text transform="matrix(1 0 0 1 2095.2512 293.6519)" class="st4 st3">Semibold</text>
	<text transform="matrix(1 0 0 1 2404.9663 293.6519)" class="st4 st3">Bold</text>
	<text transform="matrix(1 0 0 1 2696.6782 293.6519)" class="st4 st3">Heavy</text>
	<text transform="matrix(1 0 0 1 2995.7231 293.6519)" class="st4 st3">Black</text>
	<line class="st1" x1="340" y1="1874.7" x2="3113" y2="1874.7"/>
	<g transform="matrix(1 0 0 1 263 1933)">
		<path d="M86.2-27.5c4.3,0,7.9-3.6,7.9-7.9c0-4.3-3.6-7.9-7.9-7.9c-4.3,0-7.9,3.6-7.9,7.9C78.4-31.1,81.9-27.5,86.2-27.5z M86.2-29
			c-3.5,0-6.4-2.8-6.4-6.4c0-3.6,2.8-6.4,6.4-6.4c3.6,0,6.4,2.8,6.4,6.4C92.6-31.8,89.8-29,86.2-29z M83.4-34.7h2.1v2.1
			c0,0.4,0.3,0.7,0.7,0.7c0.4,0,0.7-0.3,0.7-0.7v-2.1h2.1c0.4,0,0.7-0.3,0.7-0.7c0-0.4-0.3-0.7-0.7-0.7H87v-2.1
			c0-0.4-0.3-0.8-0.7-0.8c-0.4,0-0.7,0.3-0.7,0.8v2.1h-2.1c-0.4,0-0.8,0.3-0.8,0.7C82.6-35,82.9-34.7,83.4-34.7z"/>
	</g>
	<g transform="matrix(1 0 0 1 281.506 1933)">
		<path d="M88.7-25.4c5.4,0,10-4.5,10-10c0-5.4-4.5-10-10-10c-5.4,0-10,4.5-10,10C78.7-30,83.3-25.4,88.7-25.4z M88.7-27.1
			c-4.6,0-8.3-3.7-8.3-8.3c0-4.6,3.7-8.3,8.3-8.3c4.6,0,8.3,3.7,8.3,8.3C97-30.8,93.3-27.1,88.7-27.1z M85-34.6h2.9v2.9
			c0,0.5,0.3,0.8,0.8,0.8c0.5,0,0.8-0.3,0.8-0.8v-2.9h2.9c0.5,0,0.8-0.3,0.8-0.8c0-0.5-0.3-0.8-0.8-0.8h-2.9v-2.9
			c0-0.5-0.3-0.8-0.8-0.8c-0.5,0-0.8,0.3-0.8,0.8v2.9H85c-0.5,0-0.8,0.3-0.8,0.8C84.1-34.9,84.5-34.6,85-34.6z"/>
	</g>
	<g transform="matrix(1 0 0 1 304.924 1933)">
		<path d="M92-22.7c7,0,12.7-5.8,12.7-12.7c0-7-5.8-12.7-12.7-12.7c-7,0-12.7,5.8-12.7,12.7C79.3-28.4,85-22.7,92-22.7z M92-24.5
			c-6,0-10.9-4.9-10.9-10.9c0-6,4.8-10.9,10.9-10.9c6,0,10.9,4.9,10.9,10.9C102.9-29.4,98-24.5,92-24.5z M87.1-34.5h4v4
			c0,0.5,0.4,0.9,0.9,0.9c0.5,0,0.9-0.4,0.9-0.9v-4h4c0.5,0,0.9-0.4,0.9-0.9c0-0.5-0.4-0.9-0.9-0.9h-4v-4c0-0.6-0.4-0.9-0.9-0.9
			c-0.5,0-0.9,0.4-0.9,0.9v4h-4c-0.6,0-0.9,0.4-0.9,0.9C86.1-34.9,86.5-34.5,87.1-34.5z"/>
	</g>
	<text transform="matrix(1 0 0 1 339.995 1924.6519)" class="st2 st3">Design Variations</text>
	<text transform="matrix(1 0 0 1 339.995 1942.6519)" class="st4 st3">Symbols are supported in up to nine weights and three scales.</text>
	<text transform="matrix(1 0 0 1 339.995 1960.6519)" class="st4 st3">For optimal layout with text and other symbols, vertically align</text>
	<text transform="matrix(1 0 0 1 339.995 1978.6519)" class="st4 st3">symbols with the adjacent text.</text>
	<line class="st5" x1="853" y1="1890.7" x2="853" y2="1904.7"/>
	<g transform="matrix(1 0 0 1 776 1933)">
		<path d="M80.3-28.2c0.5,0,0.8-0.2,1-0.7l1.3-3.5h5.8l1.3,3.5c0.2,0.5,0.4,0.7,0.9,0.7c0.5,0,0.8-0.3,0.8-0.8c0-0.2,0-0.3-0.1-0.5
			l-4.6-12.2c-0.2-0.6-0.6-0.9-1.2-0.9c-0.6,0-1,0.3-1.2,0.9l-4.6,12.2c-0.1,0.2-0.1,0.4-0.1,0.5C79.5-28.5,79.8-28.2,80.3-28.2z
			 M83-33.9l2.4-6.6h0l2.4,6.6H83z"/>
	</g>
	<line class="st5" x1="869.8" y1="1890.7" x2="869.8" y2="1904.7"/>
	<text transform="matrix(1 0 0 1 852.9949 1924.6519)" class="st2 st3">Margins</text>
	<text transform="matrix(1 0 0 1 852.9949 1942.6519)" class="st4 st3">Leading and trailing margins on the left and right side of each symbol</text>
	<text transform="matrix(1 0 0 1 852.9949 1960.6519)" class="st4 st3">can be adjusted by modifying the x-location of the margin guidelines.</text>
	<text transform="matrix(1 0 0 1 852.9949 1978.6519)" class="st4 st3">Modifications are automatically applied proportionally to all</text>
	<text transform="matrix(1 0 0 1 852.9949 1996.6519)" class="st4 st3">scales and weights.</text>
	<g transform="matrix(1 0 0 1 1289 1933)">
		<path d="M79.8-26.5l1.7,1.7c0.9,0.9,1.8,0.8,2.8-0.2l10.2-11.2c0.3,0.1,0.5,0.1,0.8,0l1.1-0.2l0.7,0.7l0,0.6
			c0,0.5,0.1,0.9,0.6,1.4l0.8,0.7c0.5,0.5,1.1,0.5,1.6,0l2.9-2.9c0.5-0.5,0.4-1.1,0-1.5l-0.8-0.8c-0.5-0.5-0.8-0.6-1.3-0.6l-0.6,0
			l-0.6-0.6l0.2-1.1c0.1-0.6,0-1-0.6-1.6l-2.2-2.2c-3.3-3.3-7.8-3.2-10.7-0.4c-0.4,0.4-0.4,1-0.2,1.4c0.2,0.4,0.7,0.6,1.3,0.4
			c1.5-0.3,3-0.4,4.4,0.5l-0.6,1.5C91-40.4,91-40,91.1-39.6L80-29.2C79.1-28.3,79-27.4,79.8-26.5z M87.7-44.3
			c2.4-1.8,5.7-1.5,7.9,0.8l2.4,2.4c0.2,0.2,0.3,0.4,0.2,0.8L98-38.9l1.5,1.5l1-0.1c0.3,0,0.3,0,0.5,0.2l0.6,0.6l-2.4,2.4l-0.6-0.6
			c-0.2-0.2-0.2-0.3-0.2-0.5l0.1-1l-1.5-1.5l-1.5,0.3c-0.3,0.1-0.5,0-0.7-0.2l-2-2c-0.3-0.2-0.3-0.4-0.1-0.8l0.9-2.1
			c-1.6-1.5-3.6-2.1-5.6-1.5C87.7-44.1,87.6-44.2,87.7-44.3z M82.3-26l-1.2-1.2c-0.5-0.5-0.4-0.8,0-1.2l10.8-10.2l1.5,1.5l-10,11
			C83.1-25.7,82.7-25.6,82.3-26z"/>
	</g>
	<text transform="matrix(1 0 0 1 1365.995 1924.6519)" class="st2 st3">Exporting</text>
	<text transform="matrix(1 0 0 1 1365.995 1942.6519)" class="st4 st3">Symbols should be outlined when exporting to ensure the</text>
	<text transform="matrix(1 0 0 1 1365.995 1960.6519)" class="st4 st3">design is preserved when submitting to Xcode.</text>
	<text id="template-version" transform="matrix(1 0 0 1 3035.8447 1904.6519)" class="st4 st3">Template v.2.0</text>
	<text transform="matrix(1 0 0 1 2955.5713 1922.6519)" class="st4 st3">Requires Xcode 12 or greater</text>
	<text transform="matrix(1 0 0 1 2939.5752 1940.6519)" class="st4 st3">Generated from magnifyingglass</text>
	<text transform="matrix(1 0 0 1 2998.9189 1958.6519)" class="st4 st3">Typeset at 100 points</text>
	<text transform="matrix(1 0 0 1 339.995 697.6519)" class="st4 st3">Small</text>
	<text transform="matrix(1 0 0 1 339.995 1127.6519)" class="st4 st3">Medium</text>
	<text transform="matrix(1 0 0 1 339.995 1557.6519)" class="st4 st3">Large</text>
</g>
<g id="Guides">
	<g id="H-reference" transform="matrix(1 0 0 1 339 696)">
		<path class="st6" d="M1,0h2.7L13-24.5h32.8L55.1,0h2.6L30.6-70.5h-2.5L1,0z M29.3-67.1L29.3-67.1l15.5,40.4h-31L29.3-67.1z"/>
	</g>
	<line id="Baseline-S" class="st7" x1="263" y1="696" x2="3036" y2="696"/>
	<line id="Capline-S" class="st7" x1="263" y1="625.5" x2="3036" y2="625.5"/>
	<g id="H-reference_1_" transform="matrix(1 0 0 1 339 1126)">
		<path class="st6" d="M1,0h2.7L13-24.5h32.8L55.1,0h2.6L30.6-70.5h-2.5L1,0z M29.3-67.1L29.3-67.1l15.5,40.4h-31L29.3-67.1z"/>
	</g>
	<line id="Baseline-M" class="st7" x1="263" y1="1126" x2="3036" y2="1126"/>
	<line id="Capline-M" class="st7" x1="263" y1="1055.5" x2="3036" y2="1055.5"/>
	<g id="H-reference_2_" transform="matrix(1 0 0 1 339 1556)">
		<path class="st6" d="M1,0h2.7L13-24.5h32.8L55.1,0h2.6L30.6-70.5h-2.5L1,0z M29.3-67.1L29.3-67.1l15.5,40.4h-31L29.3-67.1z"/>
	</g>
	<line id="Baseline-L" class="st7" x1="263" y1="1556" x2="3036" y2="1556"/>
	<line id="Capline-L" class="st7" x1="263" y1="1485.5" x2="3036" y2="1485.5"/>
	<line id="left-margin" class="st5" x1="1392.6" y1="1030.8" x2="1392.6" y2="1150.1"/>
	<line id="right-margin" class="st5" x1="1507.1" y1="1030.8" x2="1507.1" y2="1150.1"/>
</g>
<g id="Symbols">
	<g id="Medium-M" transform="matrix(1 0 0 1 1688.77 1126)">
		<path d="M49.7-5.4c7.8,0,15-2.3,21.1-6.3L92.1,9.7c1.4,1.4,3.2,2.1,5.2,2.1c4.1,0,7-3.2,7-7.2c0-1.9-0.6-3.7-2-5L81.1-21.8
			c4.4-6.2,7-13.8,7-22c0-21.1-17.3-38.4-38.4-38.4c-21.1,0-38.4,17.3-38.4,38.4S28.5-5.4,49.7-5.4z M49.7-15.6
			c-15.5,0-28.2-12.7-28.2-28.2S34.2-72,49.7-72s28.2,12.7,28.2,28.2S65.1-15.6,49.7-15.6z"/>
		<path class="st8" d="M26.6-46.5c0,0,2.5-10,10.7-16.1c4.2-3.1,9.8-5.2,17.2-4.5"/>
	</g>
	<g id="Regular-M" transform="matrix(1 0 0 1 1392.64 1126)">
		<path d="M48.8-6.5c8.2,0,15.7-2.6,21.8-7L93.8,9.6c1.1,1.1,2.5,1.6,4,1.6c3.2,0,5.4-2.4,5.4-5.6c0-1.5-0.5-2.9-1.6-3.9l-23-23
			c4.8-6.3,7.7-14.2,7.7-22.8c0-20.7-16.9-37.5-37.5-37.5c-20.6,0-37.5,16.8-37.5,37.5C11.2-23.4,28.1-6.5,48.8-6.5z M48.8-14.6
			c-16.1,0-29.4-13.3-29.4-29.4s13.3-29.4,29.4-29.4s29.4,13.3,29.4,29.4S64.9-14.6,48.8-14.6z"/>
		<path class="st9" d="M24.2-46.5c0,0,6.1-24.3,29.5-22.1"/>
	</g>
	<g id="Thin-M" transform="matrix(1 0 0 1 799.367 1126)">
		<path d="M47.4-9.1c8.6,0,16.5-3,22.7-8.1L97.2,10c0.5,0.5,1.4,1,2.3,1c2.1,0,3.4-1.6,3.4-3.4c0-0.8-0.3-1.6-1-2.3l-27-27.1
			c5.4-6.3,8.7-14.6,8.7-23.5c0-19.9-16.3-36.2-36.2-36.2c-19.9,0-36.2,16.3-36.2,36.2C11.2-25.4,27.5-9.1,47.4-9.1z M47.4-12.7
			c-17.8,0-32.5-14.7-32.5-32.5c0-17.9,14.7-32.5,32.5-32.5c17.9,0,32.5,14.6,32.5,32.5C79.9-27.4,65.3-12.7,47.4-12.7z"/>
		<path class="st10" d="M20.3-50.8c0,0,6.1-24.3,29.5-22.1"/>
	</g>
</g>
</svg>
